<?xml version="1.0" encoding="utf-8"?>
<!-- Generator: Adobe Illustrator 26.3.1, SVG Export Plug-In . SVG Version: 6.00 Build 0)  -->
<svg version="1.1" id="Layer_1" xmlns="http://www.w3.org/2000/svg" x="0px"
     y="0px" viewBox="0 0 768 768" style="enable-background:new 0 0 768 768;" xml:space="preserve">
<g>
  <path d="M138.65,501.81c41.7,36.1,108,82.5,166.1,73.7c6.1-0.9,12.1-2.5,18-4.5c-9.2-12.3-17.3-24.4-24.2-35.4
    c-21.9-35-28.8-75.2-25.9-113.6c-20.6,4.1-39.2,13-54.7,25.4c-6.5,5.2-16.3,1.3-14.8-7c6.4-33.5,33-60.9,68.2-66.3
    c2.6-0.4,5.3-0.7,7.9-0.8l19.4-131.3c2-13.8,8-32.7,25-45.9c18.6-14.3,50.9-30.5,103.6-35.3c-0.8-0.7-1.6-1.4-2.4-2.1
    c-20.2-15.6-72.4-41.6-185.1-24.5s-155.2,57.4-170,78.3c-5.7,8-6.5,18.1-5.1,27.9l24.2,164.3c5.5,37.3,21.5,72.6,49.8,97.2V501.81z
     M226.35,282.21c4.4-3.1,10.8-2,11.8,3.3c0.1,0.5,0.2,1.1,0.3,1.6c3.2,21.8-11.6,42-33.1,45.3c-21.5,3.3-41.5-11.8-44.7-33.5
    c-0.1-0.5-0.1-1.1-0.2-1.6c-0.6-5.4,5.2-8.4,10.3-6.7c9,3,18.8,3.9,28.7,2.4s19.1-5.3,26.8-10.8H226.35z M325.65,518.61
    c29.4,46.9,79.5,110.9,137.6,119.7c58.1,8.8,124.5-37.5,166.1-73.7c28.3-24.5,44.3-59.8,49.8-97.2l24.2-164.3
    c1.4-9.8,0.6-19.9-5.1-27.9c-14.8-20.9-57.3-61.2-170-78.3s-164.8,8.9-185,24.5c-7.8,6-11.5,15.4-12.9,25.2l-24.2,164.3
    c-5.5,37.3-0.4,75.8,19.6,107.7H325.65z M468.55,363.91c-7.7-5.5-16.8-9.3-26.8-10.8s-19.8-0.6-28.7,2.4
    c-5.1,1.7-10.9-1.3-10.3-6.7c0.1-0.5,0.1-1.1,0.2-1.6c3.2-21.8,23.2-36.8,44.7-33.5c21.5,3.3,36.3,23.5,33.1,45.3
    c-0.1,0.5-0.2,1.1-0.3,1.6c-1,5.3-7.4,6.4-11.8,3.3H468.55z M604.75,379.41c-1,5.3-7.4,6.4-11.8,3.3c-7.7-5.5-16.8-9.3-26.8-10.8
    s-19.8-0.6-28.7,2.4c-5.1,1.7-10.9-1.3-10.3-6.7c0.1-0.5,0.1-1.1,0.2-1.6c3.2-21.8,23.2-36.8,44.7-33.5
    c21.5,3.3,36.3,23.5,33.1,45.3c-0.1,0.5-0.2,1.1-0.3,1.6H604.75z M594.05,478.81c-19.6,44.7-66.8,72.5-116.8,64.9
    c-50-7.6-87.1-48.2-93-96.7c-1-8.3,8.9-12.1,15.2-6.7c23.9,20.8,53.6,35.3,87,40.3s66.1,0.1,94.9-12.8c7.6-3.4,16,3.2,12.6,10.9
    L594.05,478.81z"/>
</g>
</svg>
